<mxfile host="app.diagrams.net" modified="2020-12-22T11:47:42.486Z" agent="5.0 (Macintosh; Intel Mac OS X 11_1_0) AppleWebKit/537.36 (KHTML, like Gecko) Chrome/87.0.4280.88 Safari/537.36" etag="6Pg7tnl4KvBn9ogmgtho" version="14.1.1" type="github">
  <diagram id="Ks6JhOUS_nB5R6ai6mRj" name="Page-1">
    <mxGraphModel dx="1186" dy="764" grid="1" gridSize="10" guides="1" tooltips="1" connect="1" arrows="1" fold="1" page="1" pageScale="1" pageWidth="850" pageHeight="1100" math="0" shadow="0">
      <root>
        <mxCell id="0" />
        <mxCell id="1" parent="0" />
        <mxCell id="oR3yUl0_6StW2h7NLH77-1" value="" style="rounded=1;whiteSpace=wrap;html=1;fillColor=#dae8fc;strokeColor=#6c8ebf;" parent="1" vertex="1">
          <mxGeometry x="110" y="170" width="490" height="370" as="geometry" />
        </mxCell>
        <mxCell id="oR3yUl0_6StW2h7NLH77-3" value="&lt;b&gt;Hosp1&lt;/b&gt;" style="rounded=1;whiteSpace=wrap;html=1;fillColor=#e51400;strokeColor=#B20000;fontColor=#ffffff;" parent="1" vertex="1">
          <mxGeometry x="190" y="400" width="50" height="30" as="geometry" />
        </mxCell>
        <mxCell id="oR3yUl0_6StW2h7NLH77-4" value="&lt;b&gt;Hosp3&lt;/b&gt;" style="rounded=1;whiteSpace=wrap;html=1;fillColor=#60a917;strokeColor=#2D7600;fontColor=#ffffff;" parent="1" vertex="1">
          <mxGeometry x="360" y="400" width="60" height="30" as="geometry" />
        </mxCell>
        <mxCell id="oR3yUl0_6StW2h7NLH77-5" value="&lt;b&gt;Hosp2&lt;/b&gt;" style="rounded=1;whiteSpace=wrap;html=1;fillColor=#1ba1e2;strokeColor=#006EAF;fontColor=#ffffff;" parent="1" vertex="1">
          <mxGeometry x="250" y="400" width="60" height="30" as="geometry" />
        </mxCell>
        <mxCell id="oR3yUl0_6StW2h7NLH77-16" value="" style="edgeStyle=orthogonalEdgeStyle;rounded=0;orthogonalLoop=1;jettySize=auto;html=1;endArrow=none;endFill=0;strokeColor=#3333FF;" parent="1" source="oR3yUl0_6StW2h7NLH77-6" target="oR3yUl0_6StW2h7NLH77-7" edge="1">
          <mxGeometry relative="1" as="geometry" />
        </mxCell>
        <mxCell id="oR3yUl0_6StW2h7NLH77-6" value="&lt;font color=&quot;#3333ff&quot;&gt;hospitalchannel&lt;/font&gt;" style="ellipse;whiteSpace=wrap;html=1;fillColor=#dae8fc;strokeWidth=2;strokeColor=#3333FF;" parent="1" vertex="1">
          <mxGeometry x="160" y="327.5" width="280" height="35" as="geometry" />
        </mxCell>
        <mxCell id="oR3yUl0_6StW2h7NLH77-7" value="&lt;b&gt;Orderer&lt;/b&gt;" style="rounded=1;whiteSpace=wrap;html=1;fillColor=#fa6800;strokeColor=#C73500;fontColor=#ffffff;" parent="1" vertex="1">
          <mxGeometry x="480" y="315" width="60" height="60" as="geometry" />
        </mxCell>
        <mxCell id="oR3yUl0_6StW2h7NLH77-15" style="edgeStyle=orthogonalEdgeStyle;rounded=0;orthogonalLoop=1;jettySize=auto;html=1;exitX=0;exitY=0.5;exitDx=0;exitDy=0;exitPerimeter=0;entryX=0.036;entryY=0.643;entryDx=0;entryDy=0;entryPerimeter=0;endArrow=none;endFill=0;strokeColor=#3333FF;" parent="1" source="oR3yUl0_6StW2h7NLH77-9" target="oR3yUl0_6StW2h7NLH77-6" edge="1">
          <mxGeometry relative="1" as="geometry" />
        </mxCell>
        <mxCell id="oR3yUl0_6StW2h7NLH77-9" value="&lt;font color=&quot;#ffffff&quot;&gt;hospitalchannel config&lt;/font&gt;" style="shape=note;size=20;whiteSpace=wrap;html=1;strokeColor=#33001A;fillColor=#3333FF;" parent="1" vertex="1">
          <mxGeometry x="190" y="440" width="120" height="40" as="geometry" />
        </mxCell>
        <mxCell id="oR3yUl0_6StW2h7NLH77-22" value="" style="edgeStyle=orthogonalEdgeStyle;rounded=0;orthogonalLoop=1;jettySize=auto;html=1;endArrow=none;endFill=0;strokeColor=#3333FF;entryX=0;entryY=0;entryDx=0;entryDy=0;" parent="1" source="oR3yUl0_6StW2h7NLH77-17" target="oR3yUl0_6StW2h7NLH77-6" edge="1">
          <mxGeometry relative="1" as="geometry" />
        </mxCell>
        <mxCell id="oR3yUl0_6StW2h7NLH77-17" value="peer0" style="whiteSpace=wrap;html=1;aspect=fixed;strokeColor=#B20000;strokeWidth=2;fillColor=#e51400;fontColor=#ffffff;" parent="1" vertex="1">
          <mxGeometry x="180" y="220" width="40" height="40" as="geometry" />
        </mxCell>
        <mxCell id="oR3yUl0_6StW2h7NLH77-23" value="" style="edgeStyle=orthogonalEdgeStyle;rounded=0;orthogonalLoop=1;jettySize=auto;html=1;endArrow=none;endFill=0;strokeColor=#3333FF;" parent="1" source="oR3yUl0_6StW2h7NLH77-18" target="oR3yUl0_6StW2h7NLH77-6" edge="1">
          <mxGeometry relative="1" as="geometry" />
        </mxCell>
        <mxCell id="oR3yUl0_6StW2h7NLH77-18" value="peer0" style="whiteSpace=wrap;html=1;aspect=fixed;strokeColor=#006EAF;strokeWidth=2;fillColor=#1ba1e2;fontColor=#ffffff;" parent="1" vertex="1">
          <mxGeometry x="280" y="220" width="40" height="40" as="geometry" />
        </mxCell>
        <mxCell id="oR3yUl0_6StW2h7NLH77-24" value="" style="edgeStyle=orthogonalEdgeStyle;rounded=0;orthogonalLoop=1;jettySize=auto;html=1;endArrow=none;endFill=0;strokeColor=#3333FF;entryX=1;entryY=0;entryDx=0;entryDy=0;" parent="1" source="oR3yUl0_6StW2h7NLH77-20" target="oR3yUl0_6StW2h7NLH77-6" edge="1">
          <mxGeometry relative="1" as="geometry" />
        </mxCell>
        <mxCell id="oR3yUl0_6StW2h7NLH77-20" value="peer0" style="whiteSpace=wrap;html=1;aspect=fixed;strokeColor=#2D7600;strokeWidth=2;fillColor=#60a917;fontColor=#ffffff;" parent="1" vertex="1">
          <mxGeometry x="380" y="220" width="40" height="40" as="geometry" />
        </mxCell>
        <mxCell id="oR3yUl0_6StW2h7NLH77-25" value="&lt;font color=&quot;#ffffff&quot;&gt;L1&lt;/font&gt;" style="shape=document;whiteSpace=wrap;html=1;boundedLbl=1;strokeColor=#3333FF;strokeWidth=2;fillColor=#3333FF;" parent="1" vertex="1">
          <mxGeometry x="160" y="200" width="40" height="30" as="geometry" />
        </mxCell>
        <mxCell id="oR3yUl0_6StW2h7NLH77-28" value="&lt;font color=&quot;#ffffff&quot;&gt;L1&lt;/font&gt;" style="shape=document;whiteSpace=wrap;html=1;boundedLbl=1;strokeColor=#3333FF;strokeWidth=2;fillColor=#3333FF;" parent="1" vertex="1">
          <mxGeometry x="250" y="200" width="40" height="30" as="geometry" />
        </mxCell>
        <mxCell id="oR3yUl0_6StW2h7NLH77-29" value="&lt;font color=&quot;#ffffff&quot;&gt;L1&lt;/font&gt;" style="shape=document;whiteSpace=wrap;html=1;boundedLbl=1;strokeColor=#3333FF;strokeWidth=2;fillColor=#3333FF;" parent="1" vertex="1">
          <mxGeometry x="350" y="200" width="40" height="30" as="geometry" />
        </mxCell>
        <mxCell id="oR3yUl0_6StW2h7NLH77-30" value="&lt;font color=&quot;#ffffff&quot;&gt;SC&lt;/font&gt;" style="shape=note;size=20;whiteSpace=wrap;html=1;strokeColor=#3333FF;strokeWidth=2;fillColor=#3333FF;" parent="1" vertex="1">
          <mxGeometry x="160" y="240" width="30" height="40" as="geometry" />
        </mxCell>
        <mxCell id="oR3yUl0_6StW2h7NLH77-32" value="&lt;font color=&quot;#ffffff&quot;&gt;SC&lt;/font&gt;" style="shape=note;size=20;whiteSpace=wrap;html=1;strokeColor=#3333FF;strokeWidth=2;fillColor=#3333FF;" parent="1" vertex="1">
          <mxGeometry x="265" y="240" width="30" height="40" as="geometry" />
        </mxCell>
        <mxCell id="oR3yUl0_6StW2h7NLH77-33" value="&lt;font color=&quot;#ffffff&quot;&gt;SC&lt;/font&gt;" style="shape=note;size=20;whiteSpace=wrap;html=1;strokeColor=#3333FF;strokeWidth=2;fillColor=#3333FF;" parent="1" vertex="1">
          <mxGeometry x="360" y="240" width="30" height="40" as="geometry" />
        </mxCell>
        <mxCell id="oR3yUl0_6StW2h7NLH77-45" value="" style="edgeStyle=orthogonalEdgeStyle;rounded=0;orthogonalLoop=1;jettySize=auto;html=1;endArrow=classic;endFill=1;strokeColor=#000000;" parent="1" source="oR3yUl0_6StW2h7NLH77-34" target="oR3yUl0_6StW2h7NLH77-43" edge="1">
          <mxGeometry relative="1" as="geometry" />
        </mxCell>
        <mxCell id="oR3yUl0_6StW2h7NLH77-34" value="Blockchain Operator" style="shape=umlActor;verticalLabelPosition=bottom;verticalAlign=top;html=1;outlineConnect=0;strokeWidth=2;fillColor=#000000;" parent="1" vertex="1">
          <mxGeometry x="180" y="10" width="30" height="60" as="geometry" />
        </mxCell>
        <mxCell id="oR3yUl0_6StW2h7NLH77-49" value="" style="edgeStyle=orthogonalEdgeStyle;rounded=0;orthogonalLoop=1;jettySize=auto;html=1;endArrow=classic;endFill=1;strokeColor=#000000;" parent="1" source="oR3yUl0_6StW2h7NLH77-36" target="oR3yUl0_6StW2h7NLH77-48" edge="1">
          <mxGeometry relative="1" as="geometry" />
        </mxCell>
        <mxCell id="oR3yUl0_6StW2h7NLH77-36" value="User" style="shape=umlActor;verticalLabelPosition=bottom;verticalAlign=top;html=1;outlineConnect=0;strokeWidth=2;fillColor=#000000;" parent="1" vertex="1">
          <mxGeometry x="710" y="10" width="30" height="60" as="geometry" />
        </mxCell>
        <mxCell id="oR3yUl0_6StW2h7NLH77-44" value="" style="edgeStyle=orthogonalEdgeStyle;rounded=0;orthogonalLoop=1;jettySize=auto;html=1;endArrow=classic;endFill=1;" parent="1" source="oR3yUl0_6StW2h7NLH77-43" target="oR3yUl0_6StW2h7NLH77-1" edge="1">
          <mxGeometry relative="1" as="geometry" />
        </mxCell>
        <mxCell id="oR3yUl0_6StW2h7NLH77-43" value="&lt;b&gt;Docker&lt;/b&gt;" style="strokeWidth=2;html=1;shape=mxgraph.flowchart.multi-document;whiteSpace=wrap;" parent="1" vertex="1">
          <mxGeometry x="311" y="10" width="88" height="60" as="geometry" />
        </mxCell>
        <mxCell id="oR3yUl0_6StW2h7NLH77-51" value="" style="edgeStyle=orthogonalEdgeStyle;rounded=0;orthogonalLoop=1;jettySize=auto;html=1;endArrow=classic;endFill=1;strokeColor=#000000;" parent="1" source="oR3yUl0_6StW2h7NLH77-47" target="oR3yUl0_6StW2h7NLH77-43" edge="1">
          <mxGeometry relative="1" as="geometry" />
        </mxCell>
        <mxCell id="oR3yUl0_6StW2h7NLH77-47" value="Fabric SDK&lt;br&gt;NodeJS server" style="rounded=1;whiteSpace=wrap;html=1;strokeColor=#000000;strokeWidth=2;fillColor=#FFFFFF;" parent="1" vertex="1">
          <mxGeometry x="440" y="15" width="80" height="50" as="geometry" />
        </mxCell>
        <mxCell id="oR3yUl0_6StW2h7NLH77-50" value="" style="edgeStyle=orthogonalEdgeStyle;rounded=0;orthogonalLoop=1;jettySize=auto;html=1;endArrow=classic;endFill=1;strokeColor=#000000;" parent="1" source="oR3yUl0_6StW2h7NLH77-48" target="oR3yUl0_6StW2h7NLH77-47" edge="1">
          <mxGeometry relative="1" as="geometry" />
        </mxCell>
        <mxCell id="oR3yUl0_6StW2h7NLH77-48" value="AngularJS" style="rounded=1;whiteSpace=wrap;html=1;strokeColor=#000000;strokeWidth=2;fillColor=#FFFFFF;" parent="1" vertex="1">
          <mxGeometry x="560" y="15" width="80" height="50" as="geometry" />
        </mxCell>
        <mxCell id="oR3yUl0_6StW2h7NLH77-52" value="&lt;font style=&quot;font-size: 13px&quot;&gt;Fabric Network&lt;/font&gt;" style="text;strokeColor=none;fillColor=none;html=1;fontSize=24;fontStyle=1;verticalAlign=middle;align=center;" parent="1" vertex="1">
          <mxGeometry x="430" y="180" width="90" height="20" as="geometry" />
        </mxCell>
        <mxCell id="oR3yUl0_6StW2h7NLH77-55" style="edgeStyle=orthogonalEdgeStyle;rounded=0;orthogonalLoop=1;jettySize=auto;html=1;entryX=0.5;entryY=1;entryDx=0;entryDy=0;endArrow=none;endFill=0;strokeColor=#C73500;fillColor=#fa6800;" parent="1" source="oR3yUl0_6StW2h7NLH77-54" target="oR3yUl0_6StW2h7NLH77-7" edge="1">
          <mxGeometry relative="1" as="geometry" />
        </mxCell>
        <mxCell id="oR3yUl0_6StW2h7NLH77-54" value="Network &lt;br&gt;config" style="shape=note;size=20;whiteSpace=wrap;html=1;strokeColor=#C73500;strokeWidth=2;fillColor=#fa6800;fontColor=#ffffff;" parent="1" vertex="1">
          <mxGeometry x="190" y="490" width="120" height="40" as="geometry" />
        </mxCell>
      </root>
    </mxGraphModel>
  </diagram>
</mxfile>
